name analog
datacolumns 19
datarows 37
range 0.0 0.018000000000000002
endheader
time	ground_force_vx	ground_force_vy	ground_force_vz	ground_force_px	ground_force_py	ground_force_pz	l_ground_force_vx	l_ground_force_vy	l_ground_force_vz	l_ground_force_px	l_ground_force_py	l_ground_force_pz	ground_torque_x	ground_torque_y	ground_torque_z	l_ground_torque_x	l_ground_torque_y	l_ground_torque_z
0.0	-0.0	-0.0	-0.0	11.590208053588867	14.075451850891112	-495.8835144042969	-9.30740451812744	-20.044225692749023	-122.51428985595705	-0.0	-0.0	-0.0	-0.0	-0.0	-0.0	39030.4921875	9924.546875	-4523.06103515625
0.0005	-0.0	-0.0	-0.0	10.989014625549316	14.073399543762209	-496.94244384765625	-9.237554550170898	-19.944486618041992	-120.45730590820312	-0.0	-0.0	-0.0	-0.0	-0.0	-0.0	38887.7734375	9931.1005859375	-4555.6796875
0.001	-0.0	-0.0	-0.0	10.975152015686035	13.723824501037598	-497.27734375	-9.137210845947266	-19.42622375488281	-119.042724609375	-0.0	-0.0	-0.0	-0.0	-0.0	-0.0	38722.609375	9875.1513671875	-4610.1220703125
0.0015	-0.0	-0.0	-0.0	10.624756813049316	13.62390422821045	-498.3455200195313	-9.3190336227417	-18.97163391113281	-118.00458526611328	-0.0	-0.0	-0.0	-0.0	-0.0	-0.0	38371.5625	9926.0546875	-4635.357421875
0.002	-0.0	-0.0	-0.0	10.53107738494873	13.985005378723145	-500.1111755371094	-9.403343200683594	-18.79758071899414	-116.63350677490234	-0.0	-0.0	-0.0	-0.0	-0.0	-0.0	38153.21484375	9916.865234375	-4547.91015625
0.0025	-0.0	-0.0	-0.0	10.346343040466309	13.46076488494873	-501.4497680664063	-9.318833351135254	-18.36672782897949	-116.22615051269533	-0.0	-0.0	-0.0	-0.0	-0.0	-0.0	37802.234375	9529.494140625	-4583.06640625
0.003	-0.0	-0.0	-0.0	11.052139282226562	13.63894271850586	-501.5312805175781	-9.486000061035156	-17.925283432006836	-115.56918334960938	-0.0	-0.0	-0.0	-0.0	-0.0	-0.0	37381.31640625	9803.94921875	-4521.5830078125
0.0035	-0.0	-0.0	-0.0	10.181607246398926	13.813279151916504	-502.9358825683594	-9.403343200683594	-17.574064254760742	-115.22003173828124	-0.0	-0.0	-0.0	-0.0	-0.0	-0.0	37097.62109375	9686.869140625	-4663.81640625
0.004	-0.0	-0.0	-0.0	9.72394561767578	13.98024082183838	-502.92822265625	-9.65796947479248	-17.042266845703125	-114.50662994384766	-0.0	-0.0	-0.0	-0.0	-0.0	-0.0	37129.4765625	9614.4912109375	-4491.10888671875
0.0045000000000000005	-0.0	-0.0	-0.0	9.982532501220703	13.013038635253906	-506.0281066894531	-9.662135124206545	-16.514328002929688	-113.47427368164062	-0.0	-0.0	-0.0	-0.0	-0.0	-0.0	37033.7734375	9675.888671875	-4402.57177734375
0.005	-0.0	-0.0	-0.0	9.19574737548828	13.203651428222656	-504.3269653320313	-9.233033180236816	-16.34482192993164	-113.1041259765625	-0.0	-0.0	-0.0	-0.0	-0.0	-0.0	36242.6875	9697.1552734375	-4433.0380859375
0.0055	-0.0	-0.0	-0.0	9.72394561767578	13.191299438476562	-505.0339660644531	-9.39995288848877	-16.50096321105957	-110.68106079101562	-0.0	-0.0	-0.0	-0.0	-0.0	-0.0	36310.32421875	9800.3720703125	-4577.43798828125
0.006	-0.0	-0.0	-0.0	9.52927017211914	12.752142906188965	-506.7810668945313	-9.492053985595703	-15.457940101623535	-112.03863525390624	-0.0	-0.0	-0.0	-0.0	-0.0	-0.0	35998.16015625	9514.62890625	-4489.947265625
0.006500000000000001	-0.0	-0.0	-0.0	9.09788990020752	12.931811332702637	-505.0848693847656	-9.663037300109863	-15.535000801086426	-109.30979919433594	-0.0	-0.0	-0.0	-0.0	-0.0	-0.0	35863.42578125	9494.8408203125	-4433.98974609375
0.007	-0.0	-0.0	-0.0	8.842333793640137	12.92241096496582	-505.42425537109375	-9.845370292663574	-15.366453170776367	-110.66903686523438	-0.0	-0.0	-0.0	-0.0	-0.0	-0.0	35982.37890625	9661.8388671875	-4460.51123046875
0.0075	-0.0	-0.0	-0.0	8.741189002990723	12.13181495666504	-507.861328125	-9.406282424926758	-15.631475448608398	-109.63938903808594	-0.0	-0.0	-0.0	-0.0	-0.0	-0.0	35993.0625	9740.25	-4431.5849609375
0.008	-0.0	-0.0	-0.0	8.741231918334961	12.56598949432373	-506.8243103027344	-10.194604873657228	-15.194171905517578	-107.93277740478516	-0.0	-0.0	-0.0	-0.0	-0.0	-0.0	35514.171875	9641.0283203125	-4577.46337890625
0.0085	-0.0	-0.0	-0.0	8.557631492614746	12.302623748779297	-505.7796936035156	-9.939640998840332	-15.537923812866213	-108.59144592285156	-0.0	-0.0	-0.0	-0.0	-0.0	-0.0	35524.3984375	9773.564453125	-4610.29052734375
0.009000000000000001	-0.0	-0.0	-0.0	8.203594207763672	12.122990608215332	-507.529541015625	-10.368866920471191	-15.27708911895752	-108.2420654296875	-0.0	-0.0	-0.0	-0.0	-0.0	-0.0	35254.48828125	9519.6220703125	-4609.611328125
0.0095	-0.0	-0.0	-0.0	7.944433212280273	12.913348197937012	-507.1756896972656	-10.029135704040527	-15.718862533569336	-109.62886810302734	-0.0	-0.0	-0.0	-0.0	-0.0	-0.0	35412.58984375	9654.99609375	-4756.96875
0.01	-0.0	-0.0	-0.0	8.293183326721191	12.385735511779783	-509.2541198730469	-9.939091682434082	-15.722415924072266	-109.97361755371094	-0.0	-0.0	-0.0	-0.0	-0.0	-0.0	35474.56640625	9891.1728515625	-4756.919921875
0.0105	-0.0	-0.0	-0.0	7.853787899017334	12.043471336364746	-505.7752075195313	-10.647530555725098	-15.89567756652832	-109.28445434570312	-0.0	-0.0	-0.0	-0.0	-0.0	-0.0	35290.59765625	9794.3837890625	-4993.29931640625
0.011	-0.0	-0.0	-0.0	7.669090270996094	12.92290496826172	-506.1546020507813	-10.467872619628906	-16.247066497802734	-110.3278350830078	-0.0	-0.0	-0.0	-0.0	-0.0	-0.0	35374.10546875	10094.0322265625	-4907.86865234375
0.0115	-0.0	-0.0	-0.0	7.675891876220703	12.656517028808594	-508.2259521484375	-10.20858669281006	-16.60642433166504	-109.9904556274414	-0.0	-0.0	-0.0	-0.0	-0.0	-0.0	35456.71484375	10396.6171875	-5113.693359375
0.012	-0.0	-0.0	-0.0	7.93702507019043	12.92300510406494	-506.46002197265625	-10.734939575195312	-16.51894760131836	-109.97539520263672	-0.0	-0.0	-0.0	-0.0	-0.0	-0.0	35650.64453125	10484.6064453125	-5055.96728515625
0.0125	-0.0	-0.0	-0.0	8.023202896118164	12.564927101135254	-509.6224365234375	-10.913130760192873	-16.69025230407715	-109.28445434570312	-0.0	-0.0	-0.0	-0.0	-0.0	-0.0	35529.49609375	10359.009765625	-5055.17236328125
0.013000000000000001	-0.0	-0.0	-0.0	6.961469650268555	12.74640941619873	-508.5911865234375	-10.73638916015625	-16.779537200927734	-109.29383850097656	-0.0	-0.0	-0.0	-0.0	-0.0	-0.0	35534.90625	10139.3369140625	-5173.1748046875
0.0135	-0.0	-0.0	-0.0	7.399716377258301	12.480971336364746	-510.34771728515625	-10.82129192352295	-16.340221405029297	-109.9659423828125	-0.0	-0.0	-0.0	-0.0	-0.0	-0.0	35180.23046875	10077.87890625	-5143.4873046875
0.014	-0.0	-0.0	-0.0	7.047630310058594	12.655244827270508	-509.9892883300781	-10.820706367492676	-16.34151268005371	-108.23963165283205	-0.0	-0.0	-0.0	-0.0	-0.0	-0.0	35442.046875	10304.724609375	-5114.28564453125
0.0145	-0.0	-0.0	-0.0	6.606328010559082	12.656517028808594	-511.0443420410156	-10.82146167755127	-16.16661262512207	-109.61880493164062	-0.0	-0.0	-0.0	-0.0	-0.0	-0.0	34971.20703125	10132.7412109375	-5114.646484375
0.015	-0.0	-0.0	-0.0	6.692831039428711	12.567386627197266	-514.2239379882812	-10.468961715698242	-16.251731872558594	-107.51941680908205	-0.0	-0.0	-0.0	-0.0	-0.0	-0.0	34909.15234375	10383.728515625	-5172.2060546875
0.0155	-0.0	-0.0	-0.0	6.781358242034912	12.124903678894045	-512.8154907226562	-10.55804443359375	-15.899357795715332	-107.88593292236328	-0.0	-0.0	-0.0	-0.0	-0.0	-0.0	34954.3671875	10263.62109375	-5201.93994140625
0.016	-0.0	-0.0	-0.0	6.60239839553833	12.299585342407228	-513.5301513671875	-10.645294189453123	-15.458064079284668	-106.14383697509766	-0.0	-0.0	-0.0	-0.0	-0.0	-0.0	34400.953125	10201.056640625	-5024.72021484375
0.0165	-0.0	-0.0	-0.0	7.136513710021973	12.210537910461426	-515.6387939453125	-10.37880039215088	-15.280012130737305	-105.09178924560548	-0.0	-0.0	-0.0	-0.0	-0.0	-0.0	34522.12109375	10213.228515625	-4995.30517578125
0.017	-0.0	-0.0	-0.0	6.510483264923096	11.85353660583496	-515.2938232421875	-10.557191848754885	-15.277835845947266	-103.348876953125	-0.0	-0.0	-0.0	-0.0	-0.0	-0.0	34190.26953125	10087.80078125	-4964.77490234375
0.0175	-0.0	-0.0	-0.0	6.156641483306885	11.676268577575684	-519.1708984375	-10.46831512451172	-14.309215545654297	-102.99885559082033	-0.0	-0.0	-0.0	-0.0	-0.0	-0.0	33740.703125	10034.5078125	-4935.4580078125
0.018000000000000002	-0.0	-0.0	-0.0	6.957847595214844	11.94290256500244	-517.4097290039062	-10.11338710784912	-14.042614936828612	-100.90621948242188	-0.0	-0.0	-0.0	-0.0	-0.0	-0.0	33461.1328125	10111.685546875	-4964.71337890625
